<svg width="334" height="221.035" overflow="visible" style="display: block;" viewBox="0 0 334 221.035" fill="none" xmlns="http://www.w3.org/2000/svg">
<g id="Group 2">
<path id="Vector" d="M288.145 82.7593H288.118C288.118 82.5745 288.145 82.3897 288.145 82.2049C288.145 56.9944 267.712 36.5355 242.475 36.5355C239.228 36.5355 236.061 36.8787 233.025 37.5387C223.97 15.5223 202.35 1.17719e-06 177.06 1.17719e-06C158.079 1.17719e-06 141.158 8.7643 130.071 22.4387C122.709 18.6971 114.57 16.7436 106.312 16.7367C78.9895 16.7367 56.5508 37.5387 53.9374 64.1748C24.2391 65.7587 0.401208 90.0981 0.00523078 120.324C-0.417145 151.791 24.7934 177.662 56.2604 178.058C58.7155 178.084 61.0914 177.926 63.4672 177.636C75.6369 203.295 101.745 221.035 132.024 221.035C150.292 221.035 167.029 214.567 180.122 203.823C190.127 211.241 202.482 215.676 215.892 215.676C243.399 215.676 266.551 197.223 273.758 172.013C278.298 173.517 283.129 174.362 288.171 174.362C313.461 174.362 333.973 153.85 333.973 128.561C333.946 103.271 313.461 82.7593 288.145 82.7593Z" fill="#7ED960"/>
<path id="Vector_2" d="M315.072 91.4976C325.447 101.978 318.108 126 310.981 133.841C296.937 149.231 271.172 145.641 260.823 143.423C258.025 142.816 257.576 143.027 256.652 143.582C255.834 144.083 255.465 144.875 254.567 146.75C251.241 153.93 242.635 167.842 224.473 173.439C205.545 179.273 187.7 170.376 179.358 165.07C176.19 163.064 176.058 163.011 174.632 163.038C173.18 163.064 171.755 164.12 170.039 165.466C162.489 171.406 145.251 181.886 118.667 180.355C92.6122 178.85 77.697 162.8 72.5757 154.537C71.599 152.953 70.543 151.633 69.3287 151.501C67.9296 151.369 66.3721 152.795 65.2105 153.956C54.1232 164.753 19.2243 168 7.6618 149.601C19.4355 168.476 37.6241 177.821 56.2878 178.058C58.7429 178.085 61.1188 177.926 63.4946 177.636C75.6643 203.295 101.772 221.035 132.052 221.035C150.319 221.035 167.056 214.567 180.15 203.823C190.155 211.241 202.509 215.676 215.92 215.676C243.427 215.676 266.578 197.224 273.785 172.013C278.326 173.518 283.157 174.363 288.199 174.363C313.488 174.363 334 153.851 334 128.561C333.947 115.098 327.189 99.8924 315.072 91.4976Z" fill="#B1F49A"/>
</g>
</svg>
