<svg xmlns="http://www.w3.org/2000/svg" width="24" height="24" viewBox="0 0 24 24" fill="none" color="#000000"><path d="M4.5 13C4.5 11.5858 4.5 10.8787 4.93934 10.4393C5.37868 10 6.08579 10 7.5 10H16.5C17.9142 10 18.6213 10 19.0607 10.4393C19.5 10.8787 19.5 11.5858 19.5 13V15.5C19.5 18.3284 19.5 19.7426 18.6213 20.6213C17.7426 21.5 16.3284 21.5 13.5 21.5H10.5C7.67157 21.5 6.25736 21.5 5.37868 20.6213C4.5 19.7426 4.5 18.3284 4.5 15.5V13Z" stroke="#000000" stroke-width="1.6"/><path d="M7.75 10V7.75C7.75 5.40279 9.65279 3.5 12 3.5C14.3472 3.5 16.25 5.40279 16.25 7.75V10" stroke="#000000" stroke-width="1.6" stroke-linecap="round"/><circle cx="12" cy="15" r="1.4" fill="#000000"/></svg>
