<svg width="239" height="158.166" overflow="visible" style="display: block;" viewBox="0 0 239 158.166" fill="none" xmlns="http://www.w3.org/2000/svg">
<g id="Group 1">
<path id="Vector" d="M206.187 59.22H206.169C206.169 59.0878 206.187 58.9555 206.187 58.8233C206.187 40.7834 191.567 26.1437 173.508 26.1437C171.184 26.1437 168.918 26.3893 166.745 26.8615C160.266 11.1073 144.795 3.45707e-06 126.699 3.45707e-06C113.117 3.45707e-06 101.008 6.27147 93.0745 16.0565C87.807 13.3791 81.9824 11.9812 76.0735 11.9762C56.5225 11.9762 40.466 26.8615 38.5959 45.9215C17.3447 47.0549 0.287092 64.4714 0.00374298 86.1004C-0.298496 108.617 17.7414 127.129 40.2582 127.413C42.015 127.432 43.7151 127.318 45.4152 127.11C54.1234 145.471 72.8056 158.166 94.4723 158.166C107.544 158.166 119.52 153.537 128.89 145.849C136.049 151.157 144.89 154.331 154.486 154.331C174.169 154.331 190.735 141.127 195.892 123.087C199.142 124.164 202.598 124.768 206.206 124.768C224.303 124.768 238.98 110.091 238.98 91.9941C238.962 73.8975 224.303 59.22 206.187 59.22Z" fill="#7ED960"/>
<path id="Vector_2" d="M225.456 65.4729C232.88 72.9722 227.628 90.162 222.528 95.7723C212.479 106.785 194.042 104.216 186.637 102.629C184.635 102.195 184.314 102.346 183.652 102.743C183.067 103.102 182.802 103.668 182.16 105.01C179.78 110.148 173.622 120.103 160.626 124.107C147.082 128.282 134.312 121.916 128.343 118.119C126.076 116.684 125.981 116.646 124.961 116.665C123.922 116.683 122.902 117.439 121.675 118.402C116.272 122.653 103.937 130.152 84.9147 129.056C66.2704 127.98 55.5976 116.495 51.9329 110.582C51.234 109.449 50.4784 108.504 49.6094 108.41C48.6083 108.315 47.4938 109.335 46.6626 110.166C38.7288 117.892 13.7563 120.216 5.48253 107.05C13.9074 120.556 26.9226 127.243 40.2778 127.413C42.0346 127.432 43.7347 127.319 45.4348 127.111C54.143 145.472 72.8252 158.166 94.4919 158.166C107.564 158.166 119.54 153.538 128.909 145.85C136.069 151.158 144.909 154.331 154.505 154.331C174.189 154.331 190.755 141.127 195.912 123.087C199.161 124.164 202.618 124.768 206.226 124.768C224.323 124.768 239 110.091 239 91.9943C238.962 82.3605 234.126 71.4799 225.456 65.4729Z" fill="#B1F49A"/>
</g>
</svg>
