<svg width="500" height="500" viewBox="0 0 500 500" fill="none" xmlns="http://www.w3.org/2000/svg">
<rect width="500" height="500" fill="white"/>
<g clip-path="url(#clip0_11_9602)">
<path d="M317.155 380.013H127.227L182.843 119.987H372.772L317.155 380.013Z" fill="#DFAD0E"/>
<path d="M182.6 375.129L177.033 365.964L192.107 331.222L191.549 290.3L227.11 315.366L216.938 365.73L221.462 375.129H182.6Z" fill="#002E69"/>
<path d="M193.941 294.842L224.529 316.4L214.501 366.036L217.757 372.809H183.913L179.65 365.794L194.445 331.698L193.941 294.851M189.157 285.768L189.283 294.905L189.768 330.754L175.378 363.932L174.416 366.144L175.666 368.204L179.929 375.219L181.287 377.458H225.167L221.948 370.776L219.366 365.416L229.08 317.318L229.682 314.341L227.2 312.587L196.612 291.029L189.139 285.759L189.157 285.768Z" fill="#DFAD0E"/>
<path d="M255.863 374.886C255.341 374.886 254.819 374.707 254.397 374.365L224.061 349.794C223.494 349.335 223.171 348.634 223.197 347.896C223.224 347.159 223.593 346.484 224.196 346.071L241.23 334.208L193.896 301.723L164.954 313.199C164.685 313.307 164.388 313.361 164.1 313.361C164.073 313.361 149.602 312.857 149.602 312.857C148.919 312.83 148.28 312.506 147.857 311.976C147.435 311.436 147.264 310.743 147.399 310.069L166.339 216.67C166.483 215.977 166.924 215.392 167.545 215.069C167.877 214.889 168.255 214.808 168.624 214.808C168.939 214.808 169.253 214.871 169.55 214.997L249.018 249.344C249.828 249.694 250.376 250.477 250.421 251.358L251.923 279.94C251.941 280.246 251.896 280.552 251.797 280.839L247.669 292.531L266.583 321.14C266.826 321.509 266.961 321.932 266.97 322.363L267.473 342.167C267.473 342.482 267.428 342.797 267.311 343.094C260.917 359.067 259.1 363.006 258.408 364.166C258.174 365.236 258.111 369.247 258.201 372.494C258.228 373.402 257.724 374.248 256.906 374.653C256.582 374.814 256.222 374.895 255.872 374.895L255.863 374.886Z" fill="#002E69"/>
<path d="M168.625 217.128L248.093 251.475L249.595 280.057L245.08 292.846L264.632 322.426L265.136 342.23C265.136 342.23 257.113 362.286 256.358 363.033C255.602 363.788 255.854 372.557 255.854 372.557L225.519 347.986L245.323 334.199L194.185 299.106L164.083 311.04L149.666 310.537L168.607 217.137M168.625 212.469C167.878 212.469 167.141 212.649 166.466 213C165.225 213.648 164.335 214.826 164.056 216.202L145.115 309.601C144.845 310.941 145.178 312.335 146.023 313.415C146.869 314.494 148.155 315.141 149.522 315.186L163.939 315.69C163.993 315.69 164.047 315.69 164.101 315.69C164.685 315.69 165.27 315.582 165.819 315.366L193.609 304.349L237.138 334.226L222.865 344.164C221.66 345 220.923 346.358 220.869 347.824C220.815 349.29 221.453 350.693 222.596 351.62L252.931 376.19C253.777 376.874 254.82 377.234 255.863 377.234C256.565 377.234 257.275 377.072 257.932 376.748C259.56 375.939 260.576 374.257 260.522 372.44C260.441 369.454 260.495 366.18 260.639 364.948C261.664 363.042 263.778 358.185 269.462 343.975C269.696 343.39 269.812 342.761 269.794 342.122L269.291 322.318C269.273 321.446 269.003 320.592 268.517 319.863L250.242 292.216L253.984 281.622C254.19 281.046 254.271 280.435 254.244 279.823L252.742 251.241C252.653 249.469 251.564 247.914 249.936 247.203L170.468 212.856C169.875 212.604 169.245 212.469 168.616 212.469H168.625Z" fill="#DFAD0E"/>
<path d="M299.634 336.456C295.479 336.456 291.567 334.838 288.626 331.897C285.388 328.659 283.751 324.198 284.12 319.638L287.871 273.15L282.357 242.742L263.336 262.375L262.311 262.348C261.744 262.33 248.253 261.917 231.12 258.436C207.971 253.733 190.217 245.98 178.373 235.412C168.21 226.347 162.894 212.487 162.571 194.212C162.301 179.31 165.512 165.028 167.445 157.842C168.506 153.894 172.104 151.142 176.187 151.142C176.628 151.142 177.068 151.178 177.5 151.241L222.585 157.806L227.541 154.973C230.419 153.327 233.684 152.464 236.993 152.464C237.812 152.464 238.63 152.518 239.44 152.617L257.229 154.919C261.429 155.459 265.386 157.428 268.363 160.441L292.412 184.841C296.037 188.519 298.024 193.583 297.89 198.736L297.854 200.058L308.214 213.405C312.208 218.549 314.564 224.701 315.023 231.194L317.622 267.871C317.981 272.97 317.127 278.168 315.148 282.881L299.221 316.787C298.78 317.723 298.699 318.784 298.996 319.782C299.526 321.563 301.181 322.804 303.034 322.804C303.124 322.804 303.214 322.804 303.304 322.804L308.718 322.462L309.491 335.215L301.91 336.321C301.172 336.429 300.417 336.483 299.67 336.483L299.634 336.456ZM250.601 196.829L256.995 196.182L254.567 193.538L250.61 196.829H250.601Z" fill="#002E69"/>
<path d="M176.161 153.471C176.484 153.471 176.808 153.498 177.141 153.543L223.018 160.225L228.666 156.996C231.202 155.548 234.062 154.793 236.958 154.793C237.668 154.793 238.388 154.838 239.107 154.928L256.897 157.23C260.602 157.707 264.047 159.416 266.664 162.078L290.713 186.478C293.906 189.724 295.642 194.122 295.516 198.673L295.453 200.823L306.326 214.826C310.023 219.583 312.226 225.339 312.649 231.356L315.248 268.032C315.59 272.799 314.798 277.575 312.945 281.973L297.063 315.789C296.379 317.246 296.253 318.892 296.712 320.439C297.539 323.236 300.102 325.124 302.989 325.124C303.124 325.124 303.268 325.124 303.412 325.115L306.497 324.917L307.001 333.192L301.541 333.983C300.903 334.073 300.264 334.118 299.635 334.118C296.154 334.118 292.773 332.742 290.272 330.242C287.529 327.499 286.126 323.685 286.441 319.818L290.209 273.024L283.833 237.859L262.365 260.01C262.365 260.01 207.728 258.481 179.902 233.668C157.49 213.684 165.647 173.374 169.676 158.435C170.477 155.467 173.166 153.462 176.17 153.462M243.244 199.914L261.861 198.035L254.783 190.327L243.253 199.914M176.161 148.812C171.025 148.812 166.501 152.275 165.17 157.23C160.628 174.093 152.669 215.626 176.799 237.148C188.968 247.994 207.081 255.927 230.635 260.72C247.966 264.246 261.654 264.66 262.23 264.678L264.281 264.732L265.711 263.257L280.865 247.617L285.515 273.258L281.791 319.44C281.369 324.684 283.257 329.819 286.981 333.533C290.362 336.915 294.859 338.777 299.635 338.777C300.498 338.777 301.362 338.714 302.216 338.588L307.675 337.796L311.911 337.176L311.65 332.904L311.147 324.63L310.868 319.962L306.2 320.259L303.115 320.457C303.115 320.457 303.034 320.457 302.989 320.457C302.162 320.457 301.416 319.899 301.182 319.107C301.047 318.667 301.083 318.19 301.281 317.767L317.163 283.951L317.208 283.861L317.244 283.771C319.367 278.717 320.284 273.159 319.898 267.691L317.298 231.014C316.804 224.053 314.286 217.47 310.005 211.957L300.156 199.267V198.781C300.327 192.998 298.088 187.305 294.023 183.186L269.974 158.786C266.637 155.396 262.203 153.192 257.481 152.589L239.692 150.287C238.784 150.17 237.866 150.107 236.949 150.107C233.234 150.107 229.565 151.079 226.336 152.922L222.082 155.351L177.797 148.902C177.249 148.821 176.7 148.785 176.152 148.785L176.161 148.812Z" fill="#DFAD0E"/>
<path d="M337.758 270.568C334.503 270.568 332.362 270.425 332.047 270.407C293.824 268.68 266.636 242.472 265.503 241.357L263.74 239.63L272.257 231.86C275.468 228.928 279.632 227.318 283.976 227.318C287.591 227.318 291.072 228.424 294.022 230.52C305.003 238.308 325.104 251.826 336.373 254.928C342.003 256.475 348.749 257.258 356.42 257.258C358.974 257.258 361.609 257.168 364.272 256.997C364.389 256.997 364.496 256.988 364.604 256.988C366.844 256.988 368.705 258.535 369.146 260.747C369.587 262.96 368.427 265.109 366.331 265.964C356.555 269.975 344.225 270.568 337.749 270.568H337.758Z" fill="#002E69"/>
<path d="M283.986 229.647C287.017 229.647 290.066 230.565 292.683 232.417C304.527 240.817 324.313 254.02 335.762 257.168C342.508 259.021 349.918 259.578 356.43 259.578C359.326 259.578 362.042 259.47 364.434 259.308C364.497 259.308 364.551 259.308 364.614 259.308C367.105 259.308 367.843 262.825 365.46 263.805C356.196 267.601 344.531 268.239 337.768 268.239C334.359 268.239 332.201 268.077 332.201 268.077C294.409 266.386 267.15 239.684 267.15 239.684L273.841 233.577C276.701 230.969 280.334 229.647 283.986 229.647ZM283.986 224.989C279.057 224.989 274.336 226.814 270.693 230.142L264.002 236.249L260.359 239.576L263.885 243.03C264.182 243.318 271.233 250.171 283.113 257.267C294.095 263.814 311.47 271.819 331.931 272.745C332.363 272.772 334.548 272.916 337.768 272.916C345.889 272.916 357.59 272.088 367.231 268.14C370.37 266.854 372.106 263.634 371.449 260.316C370.793 256.997 367.987 254.677 364.623 254.677C364.461 254.677 364.299 254.677 364.137 254.695C361.529 254.866 358.939 254.955 356.439 254.955C348.974 254.955 342.436 254.2 337.004 252.707C328.909 250.486 314.133 241.942 295.381 228.649C292.026 226.275 288.087 225.016 283.986 225.016V224.989Z" fill="#DFAD0E"/>
</g>
<defs>
<clipPath id="clip0_11_9602">
<rect width="245.545" height="260.025" fill="white" transform="translate(127.227 119.987)"/>
</clipPath>
</defs>
</svg>
