<svg width="500" height="500" viewBox="0 0 500 500" fill="none" xmlns="http://www.w3.org/2000/svg">
<rect width="500" height="500" fill="white"/>
<g clip-path="url(#clip0_11_9500)">
<path d="M119.09 214.375L114.8 237.135L135.09 237.205L134.01 242.965L113.71 242.885L109 267.805L131.59 267.885L130.51 273.645L105.61 273.555C102.05 273.545 99.3696 270.305 100.04 266.795L110.15 213.225C110.66 210.525 113.02 208.575 115.77 208.585L142.77 208.685L141.69 214.445L119.1 214.365L119.09 214.375Z" fill="#00597D"/>
<path d="M149 247.935C147.82 254.165 148.01 259.115 149.58 262.775C151.17 266.615 154.09 268.555 158.34 268.565C161.32 268.575 164.2 267.765 166.96 266.145L168.16 271.335C165.08 273.595 160.85 274.715 155.48 274.695C149.5 274.675 145.06 272.265 142.16 267.465C139.25 262.675 138.56 256.245 140.08 248.185C141.63 240.005 144.8 233.535 149.62 228.755C154.2 224.175 159.54 221.895 165.65 221.925C170.82 221.935 174.55 223.085 176.85 225.355L173.85 230.165C171.84 228.525 169.34 227.695 166.35 227.685C157.33 227.645 151.54 234.405 148.99 247.925L149 247.935Z" fill="#00597D"/>
<path d="M215.669 229.655C212.969 224.605 208.099 222.075 201.069 222.045C194.169 222.015 188.419 224.515 183.819 229.545C179.569 234.125 176.689 240.415 175.179 248.405C173.689 256.265 174.169 262.535 176.599 267.205C179.369 272.255 184.229 274.795 191.199 274.825C198.159 274.845 203.949 272.345 208.539 267.325C212.739 262.675 215.579 256.425 217.059 248.555C218.579 240.505 218.109 234.205 215.649 229.655H215.669ZM208.229 248.535C205.639 262.255 200.329 269.105 192.299 269.065C184.209 269.035 181.459 262.165 184.049 248.445C186.709 234.345 192.089 227.315 200.179 227.345C208.199 227.375 210.889 234.445 208.229 248.535Z" fill="#00597D"/>
<path d="M263.64 229.535C260.69 224.935 256.1 222.625 249.87 222.605C245.76 222.595 241.97 223.325 238.5 224.825L244.17 194.045L234.55 199.875L221.06 271.335C224.45 273.745 229.57 274.955 236.4 274.985C244.23 275.015 250.77 272.525 256.04 267.505C261.05 262.745 264.35 256.195 265.92 247.835C267.36 240.235 266.6 234.135 263.65 229.535H263.64ZM257 248.095C254.28 262.475 247.81 269.645 237.57 269.615C234.27 269.605 231.83 269.185 230.28 268.365L237.62 229.465C240.38 228.155 243.41 227.505 246.71 227.515C251.47 227.535 254.71 229.595 256.45 233.685C257.96 237.275 258.14 242.085 257 248.105V248.095Z" fill="#00597D"/>
<path d="M295.899 222.395C289.799 222.375 284.089 223.615 278.769 226.115L279.929 231.035C284.849 228.905 289.359 227.855 293.469 227.865C301.369 227.905 304.679 231.275 303.399 238.015L302.819 241.125C293.159 242.035 285.769 243.705 280.659 246.155C274.239 249.215 270.439 253.865 269.259 260.095C267.369 270.105 273.219 275.125 286.819 275.175C294.179 275.205 300.349 274.025 305.309 271.655L311.479 238.985C313.559 227.965 308.369 222.445 295.899 222.395ZM297.609 268.695C295.209 269.825 292.149 270.375 288.429 270.365C279.939 270.325 276.349 266.855 277.659 259.935C278.559 255.145 281.149 251.625 285.419 249.375C288.819 247.565 294.349 246.225 302.009 245.375L297.599 268.695H297.609Z" fill="#00597D"/>
<path d="M88.9796 301.025L88.5596 303.225L93.7596 303.245L89.4896 325.815H92.9796L97.2396 303.265H102.44L102.86 301.085L88.9696 301.035L88.9796 301.025Z" fill="#00597D"/>
<path d="M117.71 308.125C116.75 306.905 115.09 306.285 112.73 306.265C111.24 306.265 109.6 306.665 107.81 307.475L109.67 297.615H106.3L100.96 325.855H104.33L107.47 309.245C108.72 308.595 110.1 308.285 111.6 308.285C114.36 308.295 115.49 309.585 115.01 312.125L112.41 325.895H115.79L118.42 312.025C118.72 310.445 118.48 309.135 117.72 308.125H117.71Z" fill="#00597D"/>
<path d="M137.259 315.725C138.529 309.395 136.529 306.205 131.279 306.195C128.799 306.185 126.669 307.015 124.879 308.685C123.009 310.455 121.759 312.955 121.159 316.165C120.529 319.505 120.899 322.045 122.259 323.805C123.539 325.465 125.579 326.305 128.359 326.315C130.939 326.325 133.079 325.895 134.789 325.015L134.309 322.915C132.799 323.655 131.049 324.025 129.049 324.015C125.279 324.005 123.619 321.815 124.069 317.445L137.269 315.725H137.259ZM126.789 310.025C127.899 308.825 129.229 308.235 130.799 308.235C133.929 308.245 135.099 310.295 134.329 314.375L124.309 315.745C124.759 313.225 125.579 311.315 126.789 310.025Z" fill="#00597D"/>
<path d="M166.109 303.075C164.839 301.655 162.719 300.935 159.759 300.925C157.079 300.925 154.819 301.365 152.969 302.265L148.489 326.025H151.859L153.799 315.745L154.959 315.855C155.589 315.905 156.179 315.935 156.729 315.935C159.779 315.945 162.239 315.215 164.119 313.735C165.789 312.395 166.839 310.635 167.249 308.445C167.689 306.165 167.299 304.375 166.099 303.075H166.109ZM163.889 308.385C163.189 312.085 160.809 313.935 156.749 313.925C156.289 313.925 155.809 313.895 155.309 313.845L154.189 313.735L156.149 303.335C156.969 303.025 157.989 302.875 159.199 302.875C163.019 302.885 164.569 304.725 163.879 308.385H163.889Z" fill="#00597D"/>
<path d="M176.61 306.355C174.29 306.355 172.11 306.815 170.08 307.765L170.52 309.645C172.4 308.835 174.12 308.435 175.69 308.435C178.7 308.445 179.96 309.735 179.48 312.305L179.25 313.495C175.57 313.835 172.75 314.485 170.8 315.405C168.35 316.565 166.9 318.345 166.46 320.715C165.73 324.535 167.97 326.445 173.15 326.465C175.96 326.465 178.31 326.025 180.2 325.125L182.56 312.675C183.35 308.475 181.37 306.365 176.61 306.345V306.355ZM177.26 324.005C176.34 324.435 175.18 324.645 173.76 324.635C170.52 324.625 169.15 323.295 169.65 320.655C169.99 318.835 170.98 317.485 172.61 316.635C173.91 315.935 176.01 315.435 178.94 315.105L177.26 323.995V324.005Z" fill="#00597D"/>
<path d="M200.96 308.285C199.93 307.055 198.1 306.435 195.5 306.425C192.52 306.415 189.94 306.865 187.77 307.765L184.29 326.155H187.67L190.89 309.145C192.08 308.695 193.4 308.465 194.85 308.475C197.68 308.485 198.86 309.755 198.38 312.265L195.75 326.195H199.13L201.77 312.205C202.07 310.605 201.81 309.285 200.96 308.275V308.285Z" fill="#00597D"/>
<path d="M227.51 301.535H224.41L210.89 326.255H214.08L218.02 318.865L226.97 318.895L228.03 326.325H231.63L227.51 301.545V301.535ZM218.99 316.915L223.88 307.505C224.51 306.185 224.96 305.185 225.25 304.515H225.33C225.27 305.215 225.33 306.215 225.52 307.515L226.77 316.945L218.99 316.915Z" fill="#00597D"/>
<path d="M246.91 300.135L247.29 298.115C245.11 298.005 243.31 298.515 241.9 299.625C240.49 300.735 239.6 302.265 239.23 304.205L238.72 306.945H236.37L236 308.875H238.35L235.05 326.345H238.43L241.72 308.905H245.25L245.62 306.965H242.09L242.67 303.855C243.11 301.485 244.53 300.235 246.9 300.135H246.91Z" fill="#00597D"/>
<path d="M248.079 308.025L244.609 326.385H247.989L251.189 309.445C251.949 309.015 252.869 308.805 253.949 308.805C254.629 308.805 255.269 308.915 255.889 309.105L257.139 306.695C253.369 306.585 250.349 307.035 248.079 308.035V308.025Z" fill="#00597D"/>
<path d="M263.959 300.315C263.649 299.975 263.229 299.795 262.689 299.785C262.129 299.785 261.629 299.965 261.189 300.305C260.739 300.645 260.469 301.065 260.389 301.545C260.299 302.025 260.409 302.435 260.729 302.765C261.039 303.105 261.479 303.275 262.029 303.275C262.559 303.275 263.049 303.115 263.489 302.785C263.929 302.445 264.199 302.035 264.289 301.565C264.379 301.095 264.269 300.675 263.949 300.315H263.959ZM259.659 307.015L255.989 326.425H259.369L263.029 307.035H259.659V307.015Z" fill="#00597D"/>
<path d="M274.899 308.905C276.029 308.905 276.989 309.225 277.759 309.855L278.899 308.015C278.029 307.145 276.609 306.715 274.629 306.705C272.299 306.705 270.269 307.565 268.509 309.305C266.669 311.125 265.459 313.595 264.869 316.715C264.289 319.785 264.559 322.235 265.669 324.065C266.779 325.895 268.479 326.815 270.749 326.815C272.799 326.825 274.409 326.395 275.589 325.545L275.129 323.565C274.079 324.185 272.979 324.495 271.839 324.485C270.219 324.485 269.109 323.745 268.499 322.275C267.899 320.885 267.819 319.005 268.269 316.625C269.239 311.465 271.449 308.895 274.889 308.905H274.899Z" fill="#00597D"/>
<path d="M288.559 306.765C286.229 306.765 284.059 307.225 282.029 308.185L282.469 310.055C284.339 309.245 286.059 308.845 287.629 308.855C290.639 308.855 291.899 310.155 291.419 312.715L291.189 313.905C287.509 314.245 284.689 314.895 282.739 315.815C280.289 316.985 278.849 318.755 278.399 321.125C277.679 324.945 279.909 326.855 285.089 326.875C287.899 326.875 290.249 326.435 292.139 325.535L294.489 313.085C295.289 308.885 293.299 306.775 288.549 306.755L288.559 306.765ZM289.209 324.415C288.289 324.845 287.129 325.055 285.709 325.045C282.469 325.045 281.109 323.705 281.609 321.065C281.949 319.245 282.939 317.905 284.569 317.045C285.869 316.345 287.979 315.845 290.899 315.515L289.219 324.405L289.209 324.415Z" fill="#00597D"/>
<path d="M312.909 308.695C311.879 307.465 310.059 306.845 307.449 306.835C304.469 306.825 301.879 307.275 299.709 308.175L296.239 326.575H299.609L302.829 309.565C304.019 309.105 305.339 308.885 306.789 308.885C309.619 308.895 310.799 310.165 310.319 312.685L307.689 326.615H311.069L313.719 312.625C314.019 311.025 313.749 309.715 312.899 308.695H312.909Z" fill="#00597D"/>
<path d="M341.77 311.825C343.08 310.765 343.89 309.435 344.2 307.795C344.55 305.945 344.09 304.455 342.81 303.325C341.44 302.165 339.35 301.575 336.57 301.575C333.71 301.565 331.36 302.015 329.52 302.915L325.22 325.655C326.82 326.575 329.11 327.045 332.1 327.045C334.96 327.055 337.31 326.515 339.16 325.415C341.19 324.195 342.43 322.405 342.88 320.025C343.2 318.305 342.78 316.805 341.6 315.555C340.63 314.525 339.44 313.865 338.02 313.595V313.515C339.44 313.285 340.69 312.715 341.77 311.805V311.825ZM338.25 315.825C339.35 316.715 339.71 318.115 339.35 320.065C338.73 323.335 336.4 324.955 332.35 324.945C330.86 324.945 329.67 324.745 328.78 324.355L330.64 314.495H332.39C335.2 314.505 337.16 314.955 338.25 315.835V315.825ZM332.66 312.825H330.96L332.62 304.035C333.75 303.685 334.93 303.505 336.17 303.515C339.82 303.525 341.35 305.045 340.78 308.045C340.46 309.725 339.69 310.935 338.46 311.695C337.23 312.455 335.3 312.835 332.67 312.825H332.66Z" fill="#00597D"/>
<path d="M355.629 307.005C353.309 307.005 351.129 307.465 349.099 308.415L349.539 310.295C351.409 309.485 353.139 309.085 354.709 309.085C357.719 309.095 358.979 310.385 358.499 312.955L358.269 314.145C354.579 314.485 351.769 315.135 349.819 316.055C347.369 317.215 345.919 318.995 345.479 321.365C344.749 325.185 346.989 327.095 352.169 327.115C354.979 327.115 357.319 326.675 359.219 325.775L361.569 313.325C362.369 309.125 360.389 307.015 355.629 306.995V307.005ZM356.279 324.665C355.359 325.095 354.199 325.305 352.779 325.295C349.539 325.285 348.169 323.955 348.669 321.315C349.009 319.495 349.999 318.155 351.629 317.285C352.929 316.595 355.029 316.085 357.949 315.765L356.269 324.655L356.279 324.665Z" fill="#00597D"/>
<path d="M379.97 308.935C378.94 307.705 377.12 307.085 374.51 307.075C371.53 307.065 368.95 307.515 366.78 308.415L363.3 326.805H366.68L369.9 309.795C371.08 309.345 372.41 309.125 373.86 309.125C376.69 309.135 377.87 310.395 377.39 312.915L374.76 326.845H378.13L380.78 312.855C381.08 311.255 380.82 309.935 379.96 308.925L379.97 308.935Z" fill="#00597D"/>
<path d="M400.429 307.535H396.919L387.879 316.485L391.249 298.635H387.989L382.649 326.875H385.909L387.799 316.885L393.779 326.915H397.599L390.979 316.565L400.429 307.525V307.535Z" fill="#00597D"/>
<path d="M403.349 285.735H94.8994V288.915H403.349V285.735Z" fill="#B4D333"/>
<path d="M386.65 247.485L404.02 274.665L394 274.625L378.32 248.305L373.36 274.555L364.8 274.515L374.63 222.445C374.71 222.065 374.78 221.685 374.84 221.315C374.85 221.245 374.87 221.175 374.88 221.105C388.43 146.385 272.24 186.265 264.3 189.065C271.94 186.245 378.78 147.775 385.1 200.435C385.66 205.075 385.44 210.435 384.3 216.575L378.51 247.265L402.2 223.735L411.42 223.775L386.63 247.495L386.65 247.485Z" fill="#00597D"/>
<path d="M360.909 237.745L353.969 274.475L345.119 274.435L352.019 237.905C353.269 231.295 350.179 227.975 342.759 227.955C338.939 227.945 335.479 228.525 332.359 229.705L323.929 274.355L315.079 274.325L324.189 226.085C329.879 223.715 336.639 222.535 344.469 222.575C351.299 222.595 356.079 224.225 358.789 227.435C361.009 230.085 361.729 233.525 360.929 237.735L360.909 237.745Z" fill="#00597D"/>
<path d="M264.33 189.055C264.26 189.085 264.2 189.105 264.15 189.125C264.14 189.125 264.12 189.125 264.11 189.135C264.01 189.175 263.95 189.195 263.93 189.195" fill="#00597D"/>
<path d="M263.899 189.215C263.899 189.215 263.899 189.215 263.909 189.215C263.929 189.215 263.989 189.185 264.089 189.155C264.099 189.155 264.119 189.155 264.129 189.145C264.179 189.125 264.239 189.105 264.309 189.075" fill="#00597D"/>
</g>
<defs>
<clipPath id="clip0_11_9500">
<rect width="322.88" height="154.27" fill="white" transform="translate(88.5596 172.865)"/>
</clipPath>
</defs>
</svg>
