<svg preserveAspectRatio="none" width="100%" height="100%" overflow="visible" style="display: block;" viewBox="0 0 13.764 17.9995" fill="none" xmlns="http://www.w3.org/2000/svg">
<path id="Vector" d="M11.012 7.50751C11.7589 8.46651 12.163 9.64801 12.16 10.8635C12.1612 12.0972 11.7454 13.295 10.98 14.2625L10.916 14.3415L10.901 14.2355C10.8857 14.1484 10.868 14.0617 10.848 13.9755C10.478 12.3195 9.28102 10.8955 7.30102 9.74151C5.96702 8.96851 5.19902 8.03651 4.99802 6.97851C4.88958 6.3187 4.94417 5.64239 5.15702 5.00851C5.30702 4.51451 5.54202 4.04851 5.85102 3.63251L6.62402 2.66951C6.65523 2.63088 6.69469 2.59973 6.73951 2.57833C6.78432 2.55692 6.83335 2.54581 6.88302 2.54581C6.93268 2.54581 6.98171 2.55692 7.02653 2.57833C7.07134 2.59973 7.1108 2.63088 7.14202 2.66951L11.012 7.50751ZM12.229 6.54451L7.07302 0.0915108C7.05025 0.0629638 7.02135 0.0399125 6.98846 0.0240698C6.95557 0.00822703 6.91953 0 6.88302 0C6.84651 0 6.81046 0.00822703 6.77757 0.0240698C6.74468 0.0399125 6.71578 0.0629638 6.69302 0.0915108L1.53502 6.54951L1.51902 6.56551C0.531779 7.82089 -0.00337607 9.37245 1.60268e-05 10.9695C0.00101603 14.8495 3.08302 17.9995 6.88302 17.9995C10.683 17.9995 13.764 14.8495 13.764 10.9695C13.7674 9.37245 13.2323 7.82089 12.245 6.56551L12.229 6.54451ZM2.76902 7.48651L3.23002 6.90951L3.24602 7.01551L3.28302 7.26951C3.58502 8.87351 4.64902 10.2075 6.43302 11.2395C7.98302 12.1445 8.88302 13.1825 9.14302 14.3205C9.24902 14.7965 9.27002 15.2625 9.22302 15.6705V15.6965L9.20102 15.7065C8.48102 16.0665 7.68802 16.2535 6.88302 16.2525C3.97102 16.2525 1.60502 13.8385 1.60502 10.8635C1.60502 9.58851 2.03802 8.41351 2.76902 7.48651Z" fill="var(--fill-0, white)"/>
</svg>
